<?xml version="1.0" encoding="UTF-8" standalone="no"?>
<!-- Created with Inkscape (http://www.inkscape.org/) -->

<svg
   version="1.1"
   id="svg1"
   width="55.500008"
   height="65.5"
   viewBox="0 0 55.500008 65.5"
   xml:space="preserve"
   xmlns="http://www.w3.org/2000/svg"
   xmlns:svg="http://www.w3.org/2000/svg"><defs
     id="defs1" /><g
     id="g1"
     transform="translate(-72,-52.5)"><g
       id="g9"
       transform="matrix(1.0366397,0,0,1.0057086,42.521865,-40.534189)"><path
         style="fill:#ffffff;stroke-width:0.979377"
         d="m 35.188827,99.963537 h 34.727592 v 2.485813 h 4.823276 v 47.72754 H 35.188827 Z"
         id="path6" /><path
         style="fill:#f1c609"
         d="m 35.188827,152.16554 v -1.98865 h 17.363796 v 7.4574 l -12.058192,3e-5 c -4.340949,0 -5.305604,-0.99433 -5.305604,-5.46878 z M 73.77504,101.95218 h 4.340949 0.964655 c 0.964655,0 2.893966,-0.14716 2.893966,2.48585 4e-6,8.17482 5e-6,7.40118 5e-6,15.57626 v 14.26893 l -7.234915,-0.0155 0.0016,-15.47097 -0.0016,-15.85024 h -7.717243 c -0.96466,0 -2.411643,0.49716 -2.411643,-1.98865 0,-5.468779 -5e-6,-5.46878 0,-8.451751"
         id="path15" /><path
         style="fill:#cccccc"
         d="m 40.012104,108.41529 c 0,-0.49716 0.482328,-0.99432 0.964655,-0.99432 h 27.975004 c 0.482328,0 0.964655,0.49716 0.964655,0.99432 v 0.49716 c 0,0.49716 -0.482327,0.99433 -0.964655,0.99433 H 40.976759 c -0.482328,0 -0.964655,-0.49717 -0.964655,-0.99433"
         id="path12" /><path
         style="fill:#01a354"
         d="m 74.739695,150.17689 v -15.90918 l 7.234915,0.0155 v 17.88232 c 0,3.9773 -1.446983,5.46878 -4.823277,5.46878 h -24.59871 c -0.01982,-3.48696 0,-3.9773 0,-7.45743"
         id="path10" /><path
         d="m 40.976759,130.29028 c 0,-5.6e-4 23.955236,-0.009 27.975004,-9.5e-4 0.482328,9.8e-4 0.96465,0.51947 0.964651,0.9953 l 10e-7,0.49717 c 10e-7,0.32445 -0.482324,0.99432 -0.964652,0.99432 l -27.975004,2.1e-4 c -0.482328,0 -0.964655,-0.49747 -0.964655,-0.99463 v -0.49717 c 0,-0.49716 0.482327,-0.99432 0.964655,-0.99435 z"
         style="fill:#cccccc"
         id="path1" /><path
         d="m 40.976759,136.25849 c 0,-5.6e-4 23.955236,-0.009 27.975004,-9.5e-4 0.482328,9.8e-4 0.96465,0.51947 0.964651,0.9953 l 10e-7,0.49717 c 10e-7,0.32445 -0.482324,0.99432 -0.964652,0.99432 l -27.975004,2.1e-4 c -0.482328,0 -0.964655,-0.49747 -0.964655,-0.99463 v -0.49717 c 0,-0.49716 0.482327,-0.99432 0.964655,-0.99435 z"
         style="fill:#cccccc"
         id="path1-57" /><path
         d="m 54.481933,142.2227 c 0.482328,0.002 0.964654,0.49676 0.964655,0.99875 l 1e-6,0.49717 c 10e-7,0.49233 -0.482328,0.98949 -0.964656,0.98949 H 40.976759 c -0.482328,0 -0.964655,-0.49796 -0.964655,-0.99512 v -0.4752 c 0,-0.50185 0.482327,-1.01549 0.964655,-1.01553 l 13.505174,4e-4 z"
         style="fill:#cccccc;stroke-width:0.713952"
         id="path1-57-2" /><path
         style="display:inline;fill:#cccccc"
         d="m 49.658657,119.85001 0,-0.49716 c 0,-0.49716 0.482328,-0.99432 0.964655,-0.99432 2.44943,2e-5 16.411274,0 18.328451,0 0.482327,0 0.964655,0.49716 0.964655,0.99432 v 0.49716 c 0,0.49717 -0.482327,0.99433 -0.964655,0.99433 -1.917177,2e-5 -15.879021,2e-5 -18.328451,0 -0.482327,0 -0.964655,-0.49716 -0.964655,-0.99433 z m 19.293106,-7.45743 c 0.482328,0 0.964655,0.49717 0.964655,0.99433 v 0.49716 c 0,0.49716 -0.482327,0.99473 -0.964655,0.99432 0,0 -13.19757,-0.005 -18.328451,0 -0.482327,4.7e-4 -0.964655,-0.49716 -0.964655,-0.99432 v -0.49716 c 0,-0.49716 0.482328,-0.99433 0.964655,-0.99433 m -4.823277,0 c 0.482328,0 0.964656,0.49717 0.964656,0.99433 v 6.4631 c 0,0.49717 -0.482328,0.99433 -0.964656,0.99433 0,0 -3.215517,1e-5 -4.823276,0 -0.482328,0 -0.964655,-0.49716 -0.964655,-0.99433 2e-6,-2.15436 0,-6.4631 0,-6.4631 0,-0.49716 0.482327,-0.99433 0.964655,-0.99433"
         id="path13" /><path
         style="display:inline;fill:#df6223"
         d="m 28.43624,144.70811 v -40.27012 c 0,-2.68213 1.431552,-4.474453 4.340949,-4.474453 h 2.411638 v 50.213353 h -1.929311 c -4.823276,0 -4.823276,-3.48013 -4.823276,-5.46878 z"
         id="path3" /><path
         style="fill:#0090cc"
         d="m 35.188827,95.986242 c 0,-2.48581 0.964655,-3.480133 3.858621,-3.480133 12.650824,-2e-6 16.391101,0 13.057124,0 h 12.506242 v 3.977295 3.480133 H 35.188827 Z"
         id="path4" /><path
         style="fill:#cccccc"
         d="m 40.976759,124.32444 c 0,-5.6e-4 23.955236,-0.009 27.975004,-9.5e-4 0.482328,9.8e-4 0.96465,0.51947 0.964651,0.9953 l 10e-7,0.49717 c 10e-7,0.32445 -0.482324,0.99432 -0.964652,0.99432 l -27.975004,2.1e-4 c -0.482328,0 -0.964655,-0.49747 -0.964655,-0.99463 v -0.49717 c 0,-0.49716 0.482327,-0.99432 0.964655,-0.99435 z"
         id="path5" /></g></g></svg>
